<?xml version="1.0" encoding="UTF-8"?>
<svg width="16px" height="16px" viewBox="0 0 16 16" version="1.1" xmlns="http://www.w3.org/2000/svg" xmlns:xlink="http://www.w3.org/1999/xlink">
    <!-- Generator: Sketch 47.1 (45422) - http://www.bohemiancoding.com/sketch -->
    <title>badge-dribbble</title>
    <desc>Created with Sketch.</desc>
    <defs></defs>
    <g id="Page-1" stroke="none" stroke-width="1" fill="none" fill-rule="evenodd">
        <g id="Desktop-Copy" transform="translate(-496.000000, -378.000000)" fill-rule="nonzero" fill="#FFFFFF">
            <g id="badge-dribbble" transform="translate(496.000000, 378.000000)">
                <path d="M8,0 C3.588752,0 0,3.58875223 0,7.99991437 C0,12.4110765 3.588752,15.9998287 8,15.9998287 C12.411248,15.9998287 16,12.4110765 16,7.99991437 C16,3.58875223 12.411248,0 8,0 Z M13.213277,3.7729467 C14.111386,4.87845605 14.664312,6.27382978 14.710296,7.79491132 C13.046637,7.45049934 11.540199,7.49091765 10.210334,7.75166715 C9.969536,7.188551 9.720262,6.65206641 9.468675,6.14503923 C10.916969,5.52112435 12.177815,4.72423279 13.213277,3.7729467 Z M12.312086,2.85702664 C11.284245,3.79521103 10.093103,4.48985796 8.873447,5.00270811 C7.978249,3.36568083 7.121758,2.1329223 6.600002,1.43236676 C7.051797,1.33611637 7.519947,1.28448027 8,1.28448027 C9.640453,1.28448027 11.144579,1.87654004 12.312086,2.85702664 Z M5.302677,1.85187802 C5.69667,2.36241611 6.635111,3.64073087 7.643171,5.4594693 C5.109663,6.28487632 2.651339,6.42394271 1.470045,6.43687315 C1.962429,4.37999208 3.402845,2.6886741 5.302677,1.85187802 Z M1.291502,7.72460743 C1.304176,7.72460743 1.316421,7.72469306 1.329351,7.72469306 C2.145596,7.72469306 3.641073,7.66980294 5.401668,7.3487685 C6.406131,7.16560162 7.358616,6.91906704 8.252358,6.613532 C8.48502,7.07722938 8.716312,7.56635946 8.940582,8.07903835 C7.689156,8.481937 6.633827,9.06166576 5.797887,9.63728418 C4.396091,10.6026139 3.414063,11.6736136 2.877835,12.335806 C1.885018,11.1649594 1.28448,9.65167036 1.28448,7.99991437 C1.28448,7.90760305 1.287734,7.81606243 1.291502,7.72460743 Z M3.803432,13.2370829 C4.265074,12.6558128 5.204714,11.5978292 6.563951,10.6694925 C7.487664,10.0385558 8.443317,9.56980615 9.427143,9.26213031 C9.997966,10.7416803 10.485298,12.3764812 10.775847,14.1123278 C9.929118,14.4983569 8.989735,14.7153485 8,14.7153485 C6.413067,14.7153485 4.953983,14.1608812 3.803432,13.2370829 Z M11.957569,13.420678 C11.658114,11.8264667 11.211543,10.3274782 10.695268,8.95753722 C11.965191,8.74328591 13.277673,8.78747204 14.625692,9.09026685 C14.334971,10.8619933 13.34909,12.4019995 11.957569,13.420678 Z"></path>
            </g>
        </g>
    </g>
</svg>