<?xml version="1.0" encoding="UTF-8"?>
<svg width="16px" height="16px" viewBox="0 0 16 16" version="1.1" xmlns="http://www.w3.org/2000/svg" xmlns:xlink="http://www.w3.org/1999/xlink">
    <!-- Generator: Sketch 47.1 (45422) - http://www.bohemiancoding.com/sketch -->
    <title>badge-linkedin</title>
    <desc>Created with Sketch.</desc>
    <defs></defs>
    <g id="Page-1" stroke="none" stroke-width="1" fill="none" fill-rule="evenodd">
        <g id="Desktop-Copy" transform="translate(-460.000000, -378.000000)" fill-rule="nonzero" fill="#FFFFFF">
            <g id="badge-linkedin" transform="translate(460.000000, 378.000000)">
                <path d="M13.634601,13.6341565 L11.2616462,13.6341565 L11.2616462,9.92072002 C11.2616462,9.03536209 11.2465346,7.89621934 10.028723,7.89621934 C8.7935776,7.89621934 8.60512792,8.86113503 8.60512792,9.85760716 L8.60512792,13.6341565 L6.23483986,13.6341565 L6.23483986,5.99838884 L8.50956971,5.99838884 L8.50956971,7.04241784 L8.54245951,7.04241784 C8.85891275,6.44195672 9.63315648,5.80905025 10.7874108,5.80905025 C13.1905886,5.80905025 13.634601,7.38998306 13.634601,9.44648462 L13.634601,13.6341565 Z M3.55920998,4.95524876 C2.79696658,4.95524876 2.18228284,4.33878719 2.18228284,3.57876608 C2.18228284,2.81918942 2.79696658,2.20272785 3.55920998,2.20272785 C4.31834218,2.20272785 4.93435929,2.81918942 4.93435929,3.57876608 C4.93435929,4.33878719 4.31834218,4.95524876 3.55920998,4.95524876 Z M2.37073252,13.6341565 L2.37073252,5.99838884 L4.74635407,5.99838884 L4.74635407,13.6341565 L2.37073252,13.6341565 Z M1.18003278,0 C0.528903581,0 0,0.516458791 0,1.15380983 L0,14.8457457 C0,15.4830968 0.528903581,16.0004445 1.18003278,16.0004445 L14.8164116,16.0004445 C15.4688741,16.0004445 16,15.4830968 16,14.8457457 L16,1.15380983 C16,0.516458791 15.4688741,0 14.8164116,0 L1.18003278,0 Z"></path>
            </g>
        </g>
    </g>
</svg>